<?xml version="1.0" standalone="no"?>
<!DOCTYPE svg PUBLIC "-//W3C//DTD SVG 20010904//EN"
 "http://www.w3.org/TR/2001/REC-SVG-20010904/DTD/svg10.dtd">
<svg version="1.0" xmlns="http://www.w3.org/2000/svg"
 width="200.000000pt" height="200.000000pt" viewBox="0 0 100.000000 100.000000"
 preserveAspectRatio="xMidYMid meet">

<g transform="translate(0.000000,100.000000) scale(0.100000,-0.100000)"
fill="#ffffff" stroke="none">
<path d="M575 808 c-48 -28 -85 -89 -85 -142 l0 -39 -52 6 c-67 8 -180 63
-241 117 -56 50 -67 45 -67 -33 0 -52 10 -78 44 -116 l21 -23 -32 7 c-29 6
-33 4 -33 -15 0 -45 49 -109 100 -129 24 -10 24 -10 -7 -10 -22 -1 -33 -6 -33
-16 0 -23 68 -85 101 -92 16 -3 31 -9 34 -13 9 -14 -79 -53 -148 -65 l-72 -13
40 -17 c268 -118 563 9 654 282 12 34 21 85 21 113 0 45 4 55 30 77 17 14 35
34 41 44 9 17 7 18 -16 9 -15 -6 -34 -10 -43 -10 -16 1 -15 1 1 11 22 13 55
74 35 66 -70 -29 -85 -30 -116 -7 -46 34 -125 38 -177 8z"/>
</g>
</svg>
